<svg width="512" height="512" viewBox="0 0 512 512" fill="none" xmlns="http://www.w3.org/2000/svg">
<rect width="512" height="512" fill="#06060A"/>
<rect x="168" y="151" width="190" height="63" rx="31.5" fill="white"/>
<path d="M168 277.5C168 260.103 182.103 246 199.5 246H284.5C301.897 246 316 260.103 316 277.5V277.5C316 294.897 301.897 309 284.5 309H199.5C182.103 309 168 294.897 168 277.5V277.5Z" fill="white"/>
<path d="M199.5 394C182.103 394 168 379.897 168 362.5L168 277.5C168 260.103 182.103 246 199.5 246V246C216.897 246 231 260.103 231 277.5L231 362.5C231 379.897 216.897 394 199.5 394V394Z" fill="white"/>
</svg>
