<svg width="1551" height="330" viewBox="0 0 1551 330" fill="none" xmlns="http://www.w3.org/2000/svg">
<path d="M417.8 76.8H523.016V109.056H453.64V151.04H521.736V182.784H453.64V256H417.8V76.8ZM605.984 259.328C592.501 259.328 580.555 256.256 570.144 250.112C559.733 243.797 551.627 235.349 545.824 224.768C540.021 214.187 537.12 202.496 537.12 189.696C537.12 177.067 540.107 165.376 546.08 154.624C552.053 143.872 560.245 135.339 570.656 129.024C581.237 122.709 593.013 119.552 605.984 119.552C618.955 119.552 630.56 122.709 640.8 129.024C651.211 135.339 659.232 143.872 664.864 154.624C670.667 165.205 673.568 176.896 673.568 189.696C673.568 193.963 673.227 198.059 672.544 201.984H572.96C575.008 210.005 578.848 216.491 584.48 221.44C590.283 226.219 597.451 228.608 605.984 228.608C613.152 228.608 619.552 226.987 625.184 223.744C630.816 220.331 635.253 215.979 638.496 210.688L665.376 230.912C659.915 239.445 651.893 246.357 641.312 251.648C630.731 256.768 618.955 259.328 605.984 259.328ZM638.752 176.128C636.704 168.448 632.693 162.048 626.72 156.928C620.747 151.808 613.664 149.248 605.472 149.248C597.451 149.248 590.453 151.723 584.48 156.672C578.677 161.621 574.837 168.107 572.96 176.128H638.752ZM750.734 259.328C737.251 259.328 725.305 256.256 714.894 250.112C704.483 243.797 696.377 235.349 690.574 224.768C684.771 214.187 681.87 202.496 681.87 189.696C681.87 177.067 684.857 165.376 690.83 154.624C696.803 143.872 704.995 135.339 715.406 129.024C725.987 122.709 737.763 119.552 750.734 119.552C763.705 119.552 775.31 122.709 785.55 129.024C795.961 135.339 803.982 143.872 809.614 154.624C815.417 165.205 818.318 176.896 818.318 189.696C818.318 193.963 817.977 198.059 817.294 201.984H717.71C719.758 210.005 723.598 216.491 729.23 221.44C735.033 226.219 742.201 228.608 750.734 228.608C757.902 228.608 764.302 226.987 769.934 223.744C775.566 220.331 780.003 215.979 783.246 210.688L810.126 230.912C804.665 239.445 796.643 246.357 786.062 251.648C775.481 256.768 763.705 259.328 750.734 259.328ZM783.502 176.128C781.454 168.448 777.443 162.048 771.47 156.928C765.497 151.808 758.414 149.248 750.222 149.248C742.201 149.248 735.203 151.723 729.23 156.672C723.427 161.621 719.587 168.107 717.71 176.128H783.502ZM892.412 259.328C880.465 259.328 869.457 256.256 859.388 250.112C849.319 243.797 841.297 235.349 835.324 224.768C829.521 214.187 826.62 202.581 826.62 189.952C826.62 177.323 829.521 165.717 835.324 155.136C841.297 144.384 849.319 135.851 859.388 129.536C869.457 123.221 880.465 120.064 892.412 120.064C903.335 120.064 912.124 122.112 918.78 126.208C925.436 130.133 930.641 135.851 934.396 143.36V69.12H968.956V256H935.42V234.24C931.495 242.261 926.119 248.491 919.292 252.928C912.636 257.195 903.676 259.328 892.412 259.328ZM861.18 189.696C861.18 196.523 862.716 202.923 865.788 208.896C869.031 214.699 873.383 219.392 878.844 222.976C884.476 226.389 890.876 228.096 898.044 228.096C905.383 228.096 911.868 226.389 917.5 222.976C923.303 219.563 927.74 214.955 930.812 209.152C933.884 203.349 935.42 196.949 935.42 189.952C935.42 182.955 933.884 176.555 930.812 170.752C927.74 164.779 923.303 160.085 917.5 156.672C911.868 153.088 905.383 151.296 898.044 151.296C890.876 151.296 884.476 153.088 878.844 156.672C873.212 160.085 868.86 164.693 865.788 170.496C862.716 176.299 861.18 182.699 861.18 189.696ZM1066.03 259.328C1054.77 259.328 1045.72 257.195 1038.9 252.928C1032.24 248.491 1026.95 242.261 1023.03 234.24V256H989.49V69.12H1024.05V143.36C1027.8 135.851 1033.01 130.133 1039.67 126.208C1046.32 122.112 1055.11 120.064 1066.03 120.064C1077.98 120.064 1088.99 123.221 1099.06 129.536C1109.13 135.851 1117.06 144.384 1122.87 155.136C1128.84 165.717 1131.83 177.323 1131.83 189.952C1131.83 202.581 1128.84 214.187 1122.87 224.768C1117.06 235.349 1109.13 243.797 1099.06 250.112C1088.99 256.256 1077.98 259.328 1066.03 259.328ZM1023.03 189.952C1023.03 196.949 1024.56 203.349 1027.63 209.152C1030.71 214.955 1035.06 219.563 1040.69 222.976C1046.49 226.389 1053.06 228.096 1060.4 228.096C1067.57 228.096 1073.88 226.389 1079.35 222.976C1084.98 219.392 1089.33 214.699 1092.4 208.896C1095.64 202.923 1097.27 196.523 1097.27 189.696C1097.27 182.699 1095.73 176.299 1092.66 170.496C1089.59 164.693 1085.23 160.085 1079.6 156.672C1073.97 153.088 1067.57 151.296 1060.4 151.296C1053.06 151.296 1046.49 153.088 1040.69 156.672C1035.06 160.085 1030.71 164.779 1027.63 170.752C1024.56 176.555 1023.03 182.955 1023.03 189.952ZM1206.66 259.328C1194.72 259.328 1183.71 256.256 1173.64 250.112C1163.57 243.797 1155.55 235.349 1149.57 224.768C1143.77 214.187 1140.87 202.581 1140.87 189.952C1140.87 177.323 1143.77 165.717 1149.57 155.136C1155.55 144.384 1163.57 135.851 1173.64 129.536C1183.71 123.221 1194.72 120.064 1206.66 120.064C1217.58 120.064 1226.37 122.112 1233.03 126.208C1239.86 130.304 1245.15 136.192 1248.9 143.872V122.88H1283.21V256H1249.67V234.24C1245.74 242.261 1240.37 248.491 1233.54 252.928C1226.89 257.195 1217.93 259.328 1206.66 259.328ZM1175.43 189.696C1175.43 196.523 1176.97 202.923 1180.04 208.896C1183.28 214.699 1187.63 219.392 1193.09 222.976C1198.73 226.389 1205.13 228.096 1212.29 228.096C1219.63 228.096 1226.12 226.389 1231.75 222.976C1237.55 219.563 1241.99 214.955 1245.06 209.152C1248.13 203.349 1249.67 196.949 1249.67 189.952C1249.67 182.955 1248.13 176.555 1245.06 170.752C1241.99 164.779 1237.55 160.085 1231.75 156.672C1226.12 153.088 1219.63 151.296 1212.29 151.296C1205.13 151.296 1198.73 153.088 1193.09 156.672C1187.46 160.085 1183.11 164.693 1180.04 170.496C1176.97 176.299 1175.43 182.699 1175.43 189.696ZM1349.31 259.328C1326.95 259.328 1308.52 251.563 1294.01 236.032L1317.31 214.784C1327.04 225.707 1337.45 231.168 1348.54 231.168C1354.34 231.168 1358.87 229.888 1362.11 227.328C1365.35 224.768 1366.97 221.44 1366.97 217.344C1366.97 213.589 1365.35 210.688 1362.11 208.64C1359.04 206.421 1352.55 204.117 1342.65 201.728C1326.44 197.803 1315.52 192.427 1309.88 185.6C1304.42 178.773 1301.69 170.325 1301.69 160.256C1301.69 148.309 1306.13 138.581 1315 131.072C1323.88 123.392 1336 119.552 1351.36 119.552C1362.45 119.552 1371.75 121.259 1379.26 124.672C1386.94 128.085 1394.11 134.059 1400.76 142.592L1375.68 161.792C1369.7 152.235 1361.85 147.456 1352.12 147.456C1347.17 147.456 1343.16 148.48 1340.09 150.528C1337.02 152.405 1335.48 155.307 1335.48 159.232C1335.48 161.963 1336.59 164.352 1338.81 166.4C1341.2 168.277 1346.07 170.155 1353.4 172.032C1371.67 176.811 1384.12 182.699 1390.78 189.696C1397.61 196.693 1401.02 205.568 1401.02 216.32C1401.02 224.341 1398.72 231.68 1394.11 238.336C1389.67 244.821 1383.53 249.941 1375.68 253.696C1367.83 257.451 1359.04 259.328 1349.31 259.328ZM1478.23 259.328C1464.75 259.328 1452.8 256.256 1442.39 250.112C1431.98 243.797 1423.88 235.349 1418.07 224.768C1412.27 214.187 1409.37 202.496 1409.37 189.696C1409.37 177.067 1412.36 165.376 1418.33 154.624C1424.3 143.872 1432.5 135.339 1442.91 129.024C1453.49 122.709 1465.26 119.552 1478.23 119.552C1491.2 119.552 1502.81 122.709 1513.05 129.024C1523.46 135.339 1531.48 143.872 1537.11 154.624C1542.92 165.205 1545.82 176.896 1545.82 189.696C1545.82 193.963 1545.48 198.059 1544.79 201.984H1445.21C1447.26 210.005 1451.1 216.491 1456.73 221.44C1462.53 226.219 1469.7 228.608 1478.23 228.608C1485.4 228.608 1491.8 226.987 1497.43 223.744C1503.07 220.331 1507.5 215.979 1510.75 210.688L1537.63 230.912C1532.16 239.445 1524.14 246.357 1513.56 251.648C1502.98 256.768 1491.2 259.328 1478.23 259.328ZM1511 176.128C1508.95 168.448 1504.94 162.048 1498.97 156.928C1493 151.808 1485.91 149.248 1477.72 149.248C1469.7 149.248 1462.7 151.723 1456.73 156.672C1450.93 161.621 1447.09 168.107 1445.21 176.128H1511Z" fill="white"/>
<rect y="11" width="300" height="300" rx="57" fill="white"/>
<rect x="79" y="70" width="142.184" height="47.1453" rx="23.5726" fill="black"/>
<path d="M79 164.664C79 151.646 89.5538 141.092 102.573 141.092H166.181C179.2 141.092 189.754 151.646 189.754 164.664V164.664C189.754 177.683 179.2 188.237 166.181 188.237H102.573C89.5538 188.237 79 177.683 79 164.664V164.664Z" fill="black"/>
<path d="M102.573 251.846C89.5538 251.846 79 241.292 79 228.273L79 164.664C79 151.645 89.5538 141.092 102.573 141.092V141.092C115.591 141.092 126.145 151.646 126.145 164.664L126.145 228.273C126.145 241.292 115.591 251.846 102.573 251.846V251.846Z" fill="black"/>
</svg>
